<?xml version="1.0" encoding="UTF-8" standalone="no"?>
<svg
   xmlns:dc="http://purl.org/dc/elements/1.1/"
   xmlns:cc="http://creativecommons.org/ns#"
   xmlns:rdf="http://www.w3.org/1999/02/22-rdf-syntax-ns#"
   xmlns:svg="http://www.w3.org/2000/svg"
   xmlns="http://www.w3.org/2000/svg"
   xmlns:sodipodi="http://sodipodi.sourceforge.net/DTD/sodipodi-0.dtd"
   xmlns:inkscape="http://www.inkscape.org/namespaces/inkscape"
   inkscape:export-ydpi="576"
   inkscape:export-xdpi="576"
   inkscape:export-filename="D:\Project Real\Februari 1\export\filled line\png\02 - Avocado.png"
   width="64pt"
   height="64pt"
   viewBox="0 0 22.577778 22.577778"
   version="1.1"
   id="svg831"
   inkscape:version="1.0 (4035a4fb49, 2020-05-01)"
   sodipodi:docname="04 - Lychee.svg">
  <defs
     id="defs825">
    <pattern
       id="EMFhbasepattern"
       patternUnits="userSpaceOnUse"
       width="6"
       height="6"
       x="0"
       y="0" />
    <pattern
       id="EMFhbasepattern-9"
       patternUnits="userSpaceOnUse"
       width="6"
       height="6"
       x="0"
       y="0" />
    <pattern
       id="EMFhbasepattern-0"
       patternUnits="userSpaceOnUse"
       width="6"
       height="6"
       x="0"
       y="0" />
    <pattern
       id="EMFhbasepattern-7"
       patternUnits="userSpaceOnUse"
       width="6"
       height="6"
       x="0"
       y="0" />
    <pattern
       id="EMFhbasepattern-2"
       patternUnits="userSpaceOnUse"
       width="6"
       height="6"
       x="0"
       y="0" />
    <pattern
       id="EMFhbasepattern-98"
       patternUnits="userSpaceOnUse"
       width="6"
       height="6"
       x="0"
       y="0" />
    <pattern
       id="EMFhbasepattern-6"
       patternUnits="userSpaceOnUse"
       width="6"
       height="6"
       x="0"
       y="0" />
    <pattern
       id="EMFhbasepattern-01"
       patternUnits="userSpaceOnUse"
       width="6"
       height="6"
       x="0"
       y="0" />
    <pattern
       id="EMFhbasepattern-07"
       patternUnits="userSpaceOnUse"
       width="6"
       height="6"
       x="0"
       y="0" />
    <pattern
       id="EMFhbasepattern-8"
       patternUnits="userSpaceOnUse"
       width="6"
       height="6"
       x="0"
       y="0" />
    <pattern
       id="EMFhbasepattern-4"
       patternUnits="userSpaceOnUse"
       width="6"
       height="6"
       x="0"
       y="0" />
    <pattern
       id="EMFhbasepattern-40"
       patternUnits="userSpaceOnUse"
       width="6"
       height="6"
       x="0"
       y="0" />
    <pattern
       id="EMFhbasepattern-08"
       patternUnits="userSpaceOnUse"
       width="6"
       height="6"
       x="0"
       y="0" />
    <pattern
       id="EMFhbasepattern-04"
       patternUnits="userSpaceOnUse"
       width="6"
       height="6"
       x="0"
       y="0" />
    <pattern
       id="EMFhbasepattern-014"
       patternUnits="userSpaceOnUse"
       width="6"
       height="6"
       x="0"
       y="0" />
    <pattern
       id="EMFhbasepattern-27"
       patternUnits="userSpaceOnUse"
       width="6"
       height="6"
       x="0"
       y="0" />
    <pattern
       id="EMFhbasepattern-09"
       patternUnits="userSpaceOnUse"
       width="6"
       height="6"
       x="0"
       y="0" />
    <pattern
       id="EMFhbasepattern-5"
       patternUnits="userSpaceOnUse"
       width="6"
       height="6"
       x="0"
       y="0" />
    <pattern
       id="EMFhbasepattern-018"
       patternUnits="userSpaceOnUse"
       width="6"
       height="6"
       x="0"
       y="0" />
  </defs>
  <sodipodi:namedview
     id="base"
     pagecolor="#ffffff"
     bordercolor="#666666"
     borderopacity="1.0"
     inkscape:pageopacity="0.0"
     inkscape:pageshadow="2"
     inkscape:zoom="6.2578125"
     inkscape:cx="33.238452"
     inkscape:cy="43.322727"
     inkscape:document-units="pt"
     inkscape:current-layer="layer1"
     showgrid="false"
     units="pt"
     inkscape:window-width="1366"
     inkscape:window-height="705"
     inkscape:window-x="-8"
     inkscape:window-y="-8"
     inkscape:window-maximized="1"
     inkscape:pagecheckerboard="true"
     inkscape:showpageshadow="false"
     inkscape:object-paths="true"
     inkscape:snap-intersection-paths="true"
     inkscape:snap-smooth-nodes="true"
     inkscape:snap-midpoints="true"
     showguides="true"
     inkscape:snap-bbox="true"
     inkscape:bbox-nodes="true"
     inkscape:snap-nodes="false"
     inkscape:snap-global="true"
     inkscape:document-rotation="0">
    <inkscape:grid
       type="xygrid"
       id="grid1378" />
    <sodipodi:guide
       position="0.97013831,21.607643"
       orientation="78.000048,0"
       id="guide1380"
       inkscape:locked="false" />
    <sodipodi:guide
       position="0.97013831,0.97013129"
       orientation="0,78.000005"
       id="guide1382"
       inkscape:locked="false" />
    <sodipodi:guide
       position="21.607639,0.97013129"
       orientation="-78.000048,0"
       id="guide1384"
       inkscape:locked="false" />
    <sodipodi:guide
       position="21.607639,21.607643"
       orientation="0,-78.000005"
       id="guide1386"
       inkscape:locked="false" />
  </sodipodi:namedview>
  <metadata
     id="metadata828">
    <rdf:RDF>
      <cc:Work
         rdf:about="">
        <dc:format>image/svg+xml</dc:format>
        <dc:type
           rdf:resource="http://purl.org/dc/dcmitype/StillImage" />
        <dc:title></dc:title>
      </cc:Work>
    </rdf:RDF>
  </metadata>
  <g
     inkscape:label="Icon"
     inkscape:groupmode="layer"
     id="layer1"
     transform="translate(0,-274.42223)">
    <g
       transform="matrix(1.2548548,0,0,1.2548548,0.67191656,-38.263292)"
       style="display:inline;stroke-width:0.796905"
       id="g490">
      <g
         style="stroke-width:0.796905"
         id="g1829">
        <path
           id="path1648"
           d="m 1.9160156,250.91406 c -0.2826274,0.0479 -0.5291449,0.11132 -0.7226562,0.21094 -0.096756,0.0498 -0.1849244,0.10581 -0.2558594,0.21094 -0.070935,0.10512 -0.0876243,0.29273 -0.0195313,0.41406 0.1851486,0.32992 0.3758657,0.60727 0.5722656,0.83984 a 0.26460996,0.26460996 0 0 0 0.2890625,0.0801 c 1.1465158,-0.39359 2.1649629,-0.25502 3.1699219,0.5957 a 0.26460996,0.26460996 0 0 0 0.4023438,-0.0742 l 0.3789062,-0.6836 a 0.26460996,0.26460996 0 0 0 -0.03125,-0.30273 c -0.780395,-0.88859 -1.1780556,-1.07657 -1.9707031,-1.26758 h -0.00195 c -0.550433,-0.13819 -1.2459011,-0.11917 -1.8105469,-0.0234 z"
           style="color:#000000;font-style:normal;font-variant:normal;font-weight:normal;font-stretch:normal;font-size:medium;line-height:normal;font-family:sans-serif;font-variant-ligatures:normal;font-variant-position:normal;font-variant-caps:normal;font-variant-numeric:normal;font-variant-alternates:normal;font-variant-east-asian:normal;font-feature-settings:normal;font-variation-settings:normal;text-indent:0;text-align:start;text-decoration:none;text-decoration-line:none;text-decoration-style:solid;text-decoration-color:#000000;letter-spacing:normal;word-spacing:normal;text-transform:none;writing-mode:lr-tb;direction:ltr;text-orientation:mixed;dominant-baseline:auto;baseline-shift:baseline;text-anchor:start;white-space:normal;shape-padding:0;shape-margin:0;inline-size:0;clip-rule:nonzero;display:inline;overflow:visible;visibility:visible;isolation:auto;mix-blend-mode:normal;color-interpolation:sRGB;color-interpolation-filters:linearRGB;solid-color:#000000;solid-opacity:1;vector-effect:none;fill:#349951;fill-opacity:1;fill-rule:nonzero;stroke:none;stroke-width:0.421696;stroke-linecap:round;stroke-linejoin:round;stroke-miterlimit:4;stroke-dasharray:none;stroke-dashoffset:0;stroke-opacity:1;color-rendering:auto;image-rendering:auto;shape-rendering:auto;text-rendering:auto;enable-background:accumulate;stop-color:#000000" />
        <path
           sodipodi:nodetypes="ccccccccccccccccccccccccccccsccccccccccccccccccccccccccccccccc"
           id="path1578"
           d="m 15.355621,255.64262 c -0.0016,-0.26928 0.01423,-0.55849 -0.201172,-0.73633 -0.0044,-0.003 -0.009,-0.007 -0.01367,-0.01 -0.234157,-0.16885 -0.374974,-0.43118 -0.382813,-0.7539 v 0.0176 c 0.01488,-0.38504 -0.218367,-0.73581 -0.570312,-0.84961 -0.0058,-0.002 -0.01168,-0.003 -0.01758,-0.004 -0.269983,-0.0667 -0.483088,-0.25407 -0.597656,-0.58594 -0.124392,-0.36029 -0.470851,-0.58743 -0.814454,-0.5332 -0.264302,0.0416 -0.524637,-0.0593 -0.707031,-0.29492 -0.232205,-0.29979 -0.652527,-0.38541 -0.966797,-0.19531 -0.22468,0.13624 -0.505209,0.13456 -0.728515,-0.004 -0.0032,-0.003 -0.0065,-0.005 -0.0098,-0.008 l -1.18e-4,5.4e-4 c -0.333401,-0.18547 -0.7583379,-0.0894 -0.9804686,0.2207 l 0.00586,-0.01 c -0.1655802,0.20952 -0.4298795,0.31222 -0.6933594,0.26758 -0.00968,-0.002 -0.019464,-0.003 -0.029297,-0.004 -0.38381,-0.0213 -0.7311848,0.23889 -0.8183594,0.61328 l 0.00781,-0.0293 c -0.093016,0.26155 -0.3115525,0.45788 -0.5820312,0.52148 -0.3367358,0.0792 -0.5817149,0.38927 -0.5898438,0.74805 l 0.00977,-0.0703 -0.2050781,0.67773 c -0.015573,0.0495 -0.016251,0.10247 -0.00195,0.15235 0.034311,0.11816 0.039116,0.1627 0.039063,0.16406 -5.3e-5,10e-4 6.707e-4,0.0103 -0.037109,0.0937 -0.1361994,0.30063 -0.1450579,0.65712 0.011719,0.96484 0.036088,0.0708 0.025814,0.0583 0.025391,0.041 -3.669e-4,-0.0149 -0.010128,0.0416 -0.033203,0.12695 -2.5e-6,6.7e-4 -2.5e-6,10e-4 0,0.002 -0.00333,0.0122 -0.0017,0.003 -0.00586,0.0176 l 0.011719,0.002 c -0.00962,0.0287 0.028171,0.051 0.021484,0.0801 l -0.042969,-0.008 v 0.002 c 7.441e-4,0.0779 0.035754,0.15146 0.095703,0.20117 0.00215,0.26858 -0.013699,0.55698 0.2011719,0.73437 0.00442,0.004 0.00898,0.008 0.013672,0.0117 0.2341573,0.16886 0.3749743,0.43119 0.3828126,0.75391 v -0.0176 c -0.014883,0.38503 0.2183673,0.73385 0.5703124,0.84766 0.00579,0.002 0.01165,0.004 0.017578,0.006 0.2699827,0.0667 0.483088,0.25211 0.5976562,0.58398 0.1241834,0.35969 0.4694668,0.58835 0.8125,0.53516 0.2643026,-0.0416 0.5265902,0.0593 0.7089844,0.29492 0.232205,0.29978 0.652528,0.38541 0.966797,0.19531 0.22468,-0.13625 0.505209,-0.13456 0.728516,0.004 0.0032,0.002 0.0065,0.004 0.0098,0.006 0.333401,0.18546 0.758338,0.0894 0.980469,-0.22071 l -0.0078,0.0117 c 0.165581,-0.20952 0.431833,-0.31222 0.695313,-0.26758 0.0097,0.002 0.01947,0.003 0.0293,0.004 0.38381,0.0213 0.731187,-0.24084 0.818359,-0.61524 l -0.0078,0.0293 c 0.09301,-0.26155 0.311552,-0.45788 0.582031,-0.52148 0.336744,-0.0792 0.581644,-0.38738 0.589844,-0.7461 l -0.01172,0.0703 0.207031,-0.67969 c -0.02488,-0.14595 -0.149599,-0.31738 -0.142449,-0.40815 0.135924,-0.30003 0.144074,-0.65755 -0.01172,-0.96485 z"
           style="color:#000000;font-style:normal;font-variant:normal;font-weight:normal;font-stretch:normal;font-size:medium;line-height:normal;font-family:sans-serif;font-variant-ligatures:normal;font-variant-position:normal;font-variant-caps:normal;font-variant-numeric:normal;font-variant-alternates:normal;font-variant-east-asian:normal;font-feature-settings:normal;font-variation-settings:normal;text-indent:0;text-align:start;text-decoration:none;text-decoration-line:none;text-decoration-style:solid;text-decoration-color:#000000;letter-spacing:normal;word-spacing:normal;text-transform:none;writing-mode:lr-tb;direction:ltr;text-orientation:mixed;dominant-baseline:auto;baseline-shift:baseline;text-anchor:start;white-space:normal;shape-padding:0;shape-margin:0;inline-size:0;clip-rule:nonzero;display:inline;overflow:visible;visibility:visible;isolation:auto;mix-blend-mode:normal;color-interpolation:sRGB;color-interpolation-filters:linearRGB;solid-color:#000000;solid-opacity:1;vector-effect:none;fill:#dc1c4b;fill-opacity:1;fill-rule:nonzero;stroke:none;stroke-width:0.421696;stroke-linecap:round;stroke-linejoin:round;stroke-miterlimit:4;stroke-dasharray:none;stroke-dashoffset:0;stroke-opacity:1;color-rendering:auto;image-rendering:auto;shape-rendering:auto;text-rendering:auto;enable-background:accumulate;stop-color:#000000" />
        <path
           sodipodi:nodetypes="cccccccccccc"
           d="m 5.0746338,252.10162 c -0.080619,0.14631 -0.1779449,0.021 -0.5876718,-0.15736 -1.1113465,-0.32544 -2.2941155,-0.40008 -3.4296726,0.0424 v 4e-5 c 0.1411795,0.22848 0.2855485,0.42839 0.4330589,0.60307 0.070423,0.0839 0.1852837,0.11578 0.2888713,0.0801 1.1465157,-0.39359 2.1648734,-0.2549 3.1698324,0.59582 0.1275884,0.10783 0.3219404,0.0719 0.4025593,-0.0744 l 0.3787884,-0.68368 c 0.054329,-0.0973 0.041933,-0.21811 -0.031006,-0.30231 -0.131298,-0.1495 -0.2500607,-0.2777 -0.3620194,-0.38969 z"
           style="color:#000000;font-style:normal;font-variant:normal;font-weight:normal;font-stretch:normal;font-size:medium;line-height:normal;font-family:sans-serif;font-variant-ligatures:normal;font-variant-position:normal;font-variant-caps:normal;font-variant-numeric:normal;font-variant-alternates:normal;font-variant-east-asian:normal;font-feature-settings:normal;font-variation-settings:normal;text-indent:0;text-align:start;text-decoration:none;text-decoration-line:none;text-decoration-style:solid;text-decoration-color:#000000;letter-spacing:normal;word-spacing:normal;text-transform:none;writing-mode:lr-tb;direction:ltr;text-orientation:mixed;dominant-baseline:auto;baseline-shift:baseline;text-anchor:start;white-space:normal;shape-padding:0;shape-margin:0;inline-size:0;clip-rule:nonzero;display:inline;overflow:visible;visibility:visible;isolation:auto;mix-blend-mode:normal;color-interpolation:sRGB;color-interpolation-filters:linearRGB;solid-color:#000000;solid-opacity:1;vector-effect:none;fill:#26783f;fill-opacity:1;fill-rule:nonzero;stroke:none;stroke-width:0.421696;stroke-linecap:round;stroke-linejoin:round;stroke-miterlimit:4;stroke-dasharray:none;stroke-dashoffset:0;stroke-opacity:1;color-rendering:auto;image-rendering:auto;shape-rendering:auto;text-rendering:auto;enable-background:accumulate;stop-color:#000000"
           id="path1702" />
        <path
           id="path1634"
           d="m 2.8769531,251.94336 c -0.5674946,-0.006 -1.2390002,0.17333 -1.765625,0.39844 -0.26358954,0.11267 -0.48748854,0.23289 -0.65234372,0.375 -0.0824276,0.071 -0.15678347,0.14682 -0.20117188,0.26562 -0.0443884,0.1188 -0.0144972,0.3042 0.0800781,0.40625 0.888642,0.95888 1.7163658,1.28891 2.4726563,1.30274 0.7562905,0.0138 1.4140634,-0.25883 2.0292969,-0.41016 a 0.26460996,0.26460996 0 0 0 0.1933593,-0.19531 c 0.074334,-0.31416 0.193674,-0.6143 0.3300781,-0.91602 a 0.26460996,0.26460996 0 0 0 -0.085937,-0.32226 c -0.5553928,-0.40194 -0.9210906,-0.63095 -1.2792969,-0.75977 -0.3575925,-0.1286 -0.6869116,-0.14434 -1.1191407,-0.14453 z"
           style="color:#000000;font-style:normal;font-variant:normal;font-weight:normal;font-stretch:normal;font-size:medium;line-height:normal;font-family:sans-serif;font-variant-ligatures:normal;font-variant-position:normal;font-variant-caps:normal;font-variant-numeric:normal;font-variant-alternates:normal;font-variant-east-asian:normal;font-feature-settings:normal;font-variation-settings:normal;text-indent:0;text-align:start;text-decoration:none;text-decoration-line:none;text-decoration-style:solid;text-decoration-color:#000000;letter-spacing:normal;word-spacing:normal;text-transform:none;writing-mode:lr-tb;direction:ltr;text-orientation:mixed;dominant-baseline:auto;baseline-shift:baseline;text-anchor:start;white-space:normal;shape-padding:0;shape-margin:0;inline-size:0;clip-rule:nonzero;display:inline;overflow:visible;visibility:visible;isolation:auto;mix-blend-mode:normal;color-interpolation:sRGB;color-interpolation-filters:linearRGB;solid-color:#000000;solid-opacity:1;vector-effect:none;fill:#50b86b;fill-opacity:1;fill-rule:nonzero;stroke:none;stroke-width:0.421696;stroke-linecap:round;stroke-linejoin:round;stroke-miterlimit:4;stroke-dasharray:none;stroke-dashoffset:0;stroke-opacity:1;color-rendering:auto;image-rendering:auto;shape-rendering:auto;text-rendering:auto;enable-background:accumulate;stop-color:#000000" />
        <path
           id="path1620"
           d="m 6.3242188,251.71094 c -0.2099049,-0.0563 -0.4238427,-0.0477 -0.59375,0.0449 -0.1699074,0.0926 -0.2757786,0.23392 -0.3828126,0.38867 -0.5678995,0.82109 -0.9671028,1.85685 -0.9570312,2.87695 a 0.26460996,0.26460996 0 0 0 0.1347656,0.22657 c 0.4244094,0.24008 0.8876503,0.22093 1.265625,0.006 a 0.26460996,0.26460996 0 0 0 0.1328125,-0.21875 c 0.037493,-0.80439 0.4805617,-1.67684 0.9296875,-2.29688 0.082826,-0.11434 0.1238682,-0.2563 0.1113282,-0.38672 -0.01254,-0.13042 -0.071686,-0.23943 -0.140625,-0.32422 -0.1378777,-0.16957 -0.3182094,-0.26771 -0.5,-0.3164 z"
           style="color:#000000;font-style:normal;font-variant:normal;font-weight:normal;font-stretch:normal;font-size:medium;line-height:normal;font-family:sans-serif;font-variant-ligatures:normal;font-variant-position:normal;font-variant-caps:normal;font-variant-numeric:normal;font-variant-alternates:normal;font-variant-east-asian:normal;font-feature-settings:normal;font-variation-settings:normal;text-indent:0;text-align:start;text-decoration:none;text-decoration-line:none;text-decoration-style:solid;text-decoration-color:#000000;letter-spacing:normal;word-spacing:normal;text-transform:none;writing-mode:lr-tb;direction:ltr;text-orientation:mixed;dominant-baseline:auto;baseline-shift:baseline;text-anchor:start;white-space:normal;shape-padding:0;shape-margin:0;inline-size:0;clip-rule:nonzero;display:inline;overflow:visible;visibility:visible;isolation:auto;mix-blend-mode:normal;color-interpolation:sRGB;color-interpolation-filters:linearRGB;solid-color:#000000;solid-opacity:1;vector-effect:none;fill:#9a605a;fill-opacity:1;fill-rule:nonzero;stroke:none;stroke-width:0.421696;stroke-linecap:round;stroke-linejoin:round;stroke-miterlimit:4;stroke-dasharray:none;stroke-dashoffset:0;stroke-opacity:1;color-rendering:auto;image-rendering:auto;shape-rendering:auto;text-rendering:auto;enable-background:accumulate;stop-color:#000000" />
        <path
           d="m 4.4725954,254.18193 c -0.054064,0.27794 -0.084934,0.55939 -0.082166,0.83975 a 0.26460996,0.26460996 0 0 0 0.1348756,0.22634 c 0.4244094,0.24008 0.8875811,0.22113 1.2655558,0.006 a 0.26460996,0.26460996 0 0 0 0.1328084,-0.21911 c 0.011986,-0.25717 0.069052,-0.52073 0.1508951,-0.78134 -0.2570928,-0.0643 -0.5267897,-0.0497 -0.7813477,0.0873 -0.00304,0.002 -0.0068,0.002 -0.00982,0.004 a 0.51095435,0.51095435 0 0 0 -0.02377,0.014 c -0.062065,0.0376 -0.1333389,0.0384 -0.1953368,0 -0.1843614,-0.11407 -0.3879826,-0.16898 -0.5916951,-0.17725 z"
           style="color:#000000;font-style:normal;font-variant:normal;font-weight:normal;font-stretch:normal;font-size:medium;line-height:normal;font-family:sans-serif;font-variant-ligatures:normal;font-variant-position:normal;font-variant-caps:normal;font-variant-numeric:normal;font-variant-alternates:normal;font-variant-east-asian:normal;font-feature-settings:normal;font-variation-settings:normal;text-indent:0;text-align:start;text-decoration:none;text-decoration-line:none;text-decoration-style:solid;text-decoration-color:#000000;letter-spacing:normal;word-spacing:normal;text-transform:none;writing-mode:lr-tb;direction:ltr;text-orientation:mixed;dominant-baseline:auto;baseline-shift:baseline;text-anchor:start;white-space:normal;shape-padding:0;shape-margin:0;inline-size:0;clip-rule:nonzero;display:inline;overflow:visible;visibility:visible;isolation:auto;mix-blend-mode:normal;color-interpolation:sRGB;color-interpolation-filters:linearRGB;solid-color:#000000;solid-opacity:1;vector-effect:none;fill:#66342d;fill-opacity:1;fill-rule:nonzero;stroke:none;stroke-width:0.421696;stroke-linecap:round;stroke-linejoin:round;stroke-miterlimit:4;stroke-dasharray:none;stroke-dashoffset:0;stroke-opacity:1;color-rendering:auto;image-rendering:auto;shape-rendering:auto;text-rendering:auto;enable-background:accumulate;stop-color:#000000"
           id="path1676" />
        <path
           d="m 6.5215661,254.45272 -0.050643,0.16795 c -0.015573,0.0495 -0.016367,0.10256 -0.00206,0.15244 0.034311,0.11816 0.03881,0.16246 0.038757,0.16382 -5.29e-5,0.001 0.00108,0.0106 -0.03669,0.0941 -0.1361993,0.30063 -0.1454081,0.65708 0.011369,0.9648 0.036088,0.0708 0.025744,0.0581 0.025321,0.0408 -3.704e-4,-0.0149 -0.01,0.0418 -0.033073,0.12713 -2.4e-6,6.6e-4 -2.4e-6,10e-4 0,0.002 -0.00333,0.0122 -0.00153,0.003 -0.00568,0.0176 l 0.011369,0.002 c -0.00962,0.0287 0.028391,0.051 0.021704,0.0801 l -0.042892,-0.008 v 0.002 c 7.409e-4,0.0779 0.035653,0.15131 0.095602,0.20102 0.00214,0.26858 -0.013848,0.55693 0.2010211,0.73432 0.00442,0.004 0.00926,0.008 0.013952,0.0119 0.2341571,0.16886 0.3750839,0.43124 0.3829222,0.75396 v -0.0176 c -0.014883,0.38503 0.2180461,0.73368 0.5699911,0.84749 0.00579,0.002 0.011642,0.004 0.017571,0.006 0.2699827,0.0667 0.4833281,0.25207 0.5978964,0.58394 0.1241833,0.35969 0.4693203,0.58856 0.8123534,0.53537 0.2643027,-0.0416 0.5266066,0.0589 0.7090008,0.29456 0.1347296,0.17394 0.3329889,0.27322 0.5369179,0.29094 a 0.51095435,0.51095435 0 0 0 -0.01757,-0.15607 c -0.0045,-0.0161 -0.0021,-0.003 -0.0057,-0.0176 0.0062,-0.0182 0.0024,-0.003 0.0098,-0.0238 0.03193,-0.0873 0.07648,-0.21245 0.128674,-0.37879 0.04692,-0.14978 0.04692,-0.31324 0,-0.46302 -0.05123,-0.16326 -0.09489,-0.28358 -0.128674,-0.37103 0.005,-0.0196 0.0016,-0.007 0.0078,-0.0289 0.08151,-0.29061 0.08522,-0.63119 -0.06615,-0.9493 a 0.51095435,0.51095435 0 0 0 0,-0.002 c -0.02063,-0.0429 -0.06587,-0.067 -0.09405,-0.10542 -0.0022,-0.006 -0.0078,-0.0196 -0.0078,-0.0196 -4.5e-5,-9e-5 -0.03713,-0.0583 -0.03721,-0.0584 -1.65e-4,-2.3e-4 -0.02787,-0.0351 -0.03514,-0.0434 -0.01454,-0.0165 -0.02033,-0.0224 -0.02532,-0.0274 -0.01997,-0.0198 -0.02232,-0.0227 -0.03101,-0.031 -0.01737,-0.0166 -0.03873,-0.0358 -0.05116,-0.0506 -0.046305,-0.0551 -0.1127199,-0.14621 -0.1715659,-0.23668 -0.049091,-0.0755 -0.099282,-0.17395 -0.1328084,-0.25166 -0.016446,-0.0381 -0.02932,-0.0702 -0.03514,-0.0879 a 0.51095435,0.51095435 0 0 0 -0.084233,-0.20929 c -0.088558,-0.46345 -0.3465021,-0.87998 -0.802535,-1.05058 -0.02068,-0.008 -0.041229,-0.017 -0.062529,-0.0233 a 0.51095435,0.51095435 0 0 0 -0.021704,-0.006 c -0.1038143,-0.0257 -0.1842569,-0.0979 -0.2185914,-0.1974 a 0.51095435,0.51095435 0 0 0 -0.191208,-0.25166 c -0.2409688,-0.40449 -0.6274552,-0.70666 -1.1172444,-0.68575 -0.02345,7.4e-4 -0.046994,0.001 -0.07028,0.004 a 0.51095435,0.51095435 0 0 0 -0.017571,0.004 c -0.081783,0.0128 -0.1557038,-0.0176 -0.2072224,-0.0842 a 0.51095435,0.51095435 0 0 0 -0.3007569,-0.18758 c -0.028355,-0.0211 -0.058436,-0.0392 -0.08785,-0.0584 z"
           style="color:#000000;font-style:normal;font-variant:normal;font-weight:normal;font-stretch:normal;font-size:medium;line-height:normal;font-family:sans-serif;font-variant-ligatures:normal;font-variant-position:normal;font-variant-caps:normal;font-variant-numeric:normal;font-variant-alternates:normal;font-variant-east-asian:normal;font-feature-settings:normal;font-variation-settings:normal;text-indent:0;text-align:start;text-decoration:none;text-decoration-line:none;text-decoration-style:solid;text-decoration-color:#000000;letter-spacing:normal;word-spacing:normal;text-transform:none;writing-mode:lr-tb;direction:ltr;text-orientation:mixed;dominant-baseline:auto;baseline-shift:baseline;text-anchor:start;white-space:normal;shape-padding:0;shape-margin:0;inline-size:0;clip-rule:nonzero;display:inline;overflow:visible;visibility:visible;isolation:auto;mix-blend-mode:normal;color-interpolation:sRGB;color-interpolation-filters:linearRGB;solid-color:#000000;solid-opacity:1;vector-effect:none;fill:#b01d47;fill-opacity:1;fill-rule:nonzero;stroke:none;stroke-width:0.421696;stroke-linecap:round;stroke-linejoin:round;stroke-miterlimit:4;stroke-dasharray:none;stroke-dashoffset:0;stroke-opacity:1;color-rendering:auto;image-rendering:auto;shape-rendering:auto;text-rendering:auto;enable-background:accumulate;stop-color:#000000"
           id="path1679" />
        <path
           id="path1564"
           d="m 5.5351562,254.79102 a 0.26460996,0.26460996 0 0 0 -0.011719,0.006 c -0.224701,0.13607 -0.5051882,0.13439 -0.7285156,-0.004 -0.3127745,-0.19392 -0.733518,-0.11198 -0.96875,0.18555 -0.1835647,0.23227 -0.4455047,0.32979 -0.7089844,0.28515 -0.3432334,-0.0583 -0.6926358,0.16637 -0.8203125,0.52539 -0.1172449,0.32969 -0.3310789,0.51452 -0.6015625,0.57813 -0.3367938,0.0792 -0.5828817,0.40264 -0.5957031,0.78906 -0.012249,0.3687 -0.1548147,0.62283 -0.39062502,0.78906 -0.29691536,0.2093 -0.42588621,0.60212 -0.3203125,0.97852 0.0283276,0.101 0.0427457,0.16225 0.046875,0.1875 0.004129,0.0252 0.005217,0.005 0.001953,0.0176 -0.006529,0.0245 -0.0760726,0.16858 -0.17578125,0.48632 a 0.26460996,0.26460996 0 0 0 0,0.15821 c 0.0989379,0.31528 0.16438692,0.46479 0.17578125,0.50976 0.005697,0.0225 0.004976,0.014 0.001953,0.0371 -0.003023,0.0231 -0.0142598,0.0756 -0.0390625,0.16407 l 0.005859,-0.0156 c -0.13040762,0.36798 -0.0142163,0.77956 0.2890625,1.02539 a 0.26460996,0.26460996 0 0 0 0.0136719,0.0117 c 0.23576539,0.16619 0.37911472,0.43258 0.38867182,0.7207 v -0.0312 c -0.031251,0.38646 0.2035003,0.74973 0.5683594,0.88086 a 0.26460996,0.26460996 0 0 0 0.029297,0.008 c 0.2704836,0.0636 0.4890149,0.25992 0.5820313,0.52149 l -0.00977,-0.0293 c 0.087179,0.37435 0.4345214,0.63642 0.8183594,0.61524 a 0.26460996,0.26460996 0 0 0 0.03125,-0.004 c 0.2634325,-0.0446 0.5277712,0.0581 0.6933594,0.26758 l -0.00781,-0.0117 c 0.2221274,0.31014 0.6470677,0.40617 0.9804687,0.2207 a 0.26460996,0.26460996 0 0 0 0.011719,-0.006 c 0.2233301,-0.13831 0.5038198,-0.13999 0.7285156,-0.004 0.31427,0.1901 0.7345878,0.10445 0.9667969,-0.19532 a 0.26460996,0.26460996 0 0 0 0,-0.002 c 0.182415,-0.23562 0.4428515,-0.33461 0.7070312,-0.29297 0.343556,0.0541 0.6930916,-0.18088 0.8144532,-0.55273 v 0.004 c 0.093648,-0.275 0.3095944,-0.46764 0.5800781,-0.53125 a 0.26460996,0.26460996 0 0 0 0.029297,-0.008 c 0.3648591,-0.13113 0.5976572,-0.4944 0.5664062,-0.88086 v 0.0312 c 0.00956,-0.28812 0.1548595,-0.55451 0.390625,-0.7207 a 0.26460996,0.26460996 0 0 0 0.013672,-0.0117 c 0.3032788,-0.24583 0.4194693,-0.65741 0.2890625,-1.02539 l 0.00586,0.0156 c -0.024803,-0.0884 -0.037993,-0.14093 -0.041016,-0.16407 -0.00302,-0.0231 -0.00374,-0.0146 0.00195,-0.0371 0.011394,-0.045 0.076843,-0.19448 0.1757818,-0.50976 a 0.26460996,0.26460996 0 0 0 0,-0.15821 c -0.099709,-0.31774 -0.1692532,-0.46183 -0.1757818,-0.48632 -0.00326,-0.0122 -0.00218,0.008 0.00195,-0.0176 0.00413,-0.0253 0.0205,-0.0865 0.048828,-0.1875 0.055001,-0.1961 0.05304,-0.40644 -0.035156,-0.5918 a 0.26460996,0.26460996 0 0 0 -0.097656,-0.10937 c 0.020867,0.0131 -0.049574,-0.0434 -0.1132812,-0.11914 -0.063707,-0.0758 -0.1390959,-0.17772 -0.2089844,-0.28516 -0.139777,-0.21489 -0.244502,-0.48119 -0.2460938,-0.54688 v 0.0293 c 0.034347,-0.38625 -0.1971169,-0.74967 -0.5605468,-0.88476 a 0.26460996,0.26460996 0 0 0 -0.027344,-0.01 c -0.2699917,-0.0668 -0.4874176,-0.2646 -0.578125,-0.52734 l 0.00781,0.0293 c -0.083372,-0.37533 -0.4283204,-0.63944 -0.8125,-0.62304 a 0.26460996,0.26460996 0 0 0 -0.029297,0.002 c -0.2643454,0.0415 -0.5277938,-0.0641 -0.6914062,-0.27539 l 0.00781,0.0117 C 6.295467,254.71051 5.8711296,254.61011 5.5351562,254.79102 Z"
           style="color:#000000;font-style:normal;font-variant:normal;font-weight:normal;font-stretch:normal;font-size:medium;line-height:normal;font-family:sans-serif;font-variant-ligatures:normal;font-variant-position:normal;font-variant-caps:normal;font-variant-numeric:normal;font-variant-alternates:normal;font-variant-east-asian:normal;font-feature-settings:normal;font-variation-settings:normal;text-indent:0;text-align:start;text-decoration:none;text-decoration-line:none;text-decoration-style:solid;text-decoration-color:#000000;letter-spacing:normal;word-spacing:normal;text-transform:none;writing-mode:lr-tb;direction:ltr;text-orientation:mixed;dominant-baseline:auto;baseline-shift:baseline;text-anchor:start;white-space:normal;shape-padding:0;shape-margin:0;inline-size:0;clip-rule:nonzero;display:inline;overflow:visible;visibility:visible;isolation:auto;mix-blend-mode:normal;color-interpolation:sRGB;color-interpolation-filters:linearRGB;solid-color:#000000;solid-opacity:1;vector-effect:none;fill:#dc1c4b;fill-opacity:1;fill-rule:nonzero;stroke:none;stroke-width:0.421696;stroke-linecap:round;stroke-linejoin:round;stroke-miterlimit:4;stroke-dasharray:none;stroke-dashoffset:0;stroke-opacity:1;color-rendering:auto;image-rendering:auto;shape-rendering:auto;text-rendering:auto;enable-background:accumulate;stop-color:#000000" />
        <path
           d="m 9.3518842,257.66079 c -0.7740524,0.78568 -1.2541865,1.86203 -1.254187,3.04633 a 0.46399919,0.46399919 0 0 0 0,0.002 c 0.00135,0.37976 0.3468188,0.72522 0.7265705,0.72657 a 0.46399919,0.46399919 0 0 0 0.00206,0 h 0.826823 c 0.2553774,-0.24928 0.3487493,-0.62635 0.227893,-0.96738 l 0.00568,0.016 c -0.024802,-0.0884 -0.037802,-0.14119 -0.040824,-0.16433 -0.00302,-0.0231 -0.00414,-0.0147 0.00156,-0.0372 0.011393,-0.045 0.077278,-0.19425 0.1762163,-0.50953 a 0.26460996,0.26460996 0 0 0 0,-0.15813 c -0.099709,-0.31774 -0.1696877,-0.46178 -0.1762163,-0.48627 -0.00326,-0.0122 -0.00206,0.008 0.00206,-0.0176 0.00413,-0.0253 0.020764,-0.0866 0.049093,-0.18759 0.055001,-0.1961 0.053056,-0.40633 -0.03514,-0.59169 a 0.26460996,0.26460996 0 0 0 -0.097668,-0.10956 c 0.020868,0.0131 -0.049981,-0.0436 -0.1136881,-0.11937 -0.063707,-0.0758 -0.1388842,-0.1773 -0.2087729,-0.28474 -0.032972,-0.0507 -0.06329,-0.10451 -0.091467,-0.15761 z"
           style="color:#000000;font-style:normal;font-variant:normal;font-weight:normal;font-stretch:normal;font-size:medium;line-height:normal;font-family:sans-serif;font-variant-ligatures:normal;font-variant-position:normal;font-variant-caps:normal;font-variant-numeric:normal;font-variant-alternates:normal;font-variant-east-asian:normal;font-feature-settings:normal;font-variation-settings:normal;text-indent:0;text-align:start;text-decoration:none;text-decoration-line:none;text-decoration-style:solid;text-decoration-color:#000000;letter-spacing:normal;word-spacing:normal;text-transform:none;writing-mode:lr-tb;direction:ltr;text-orientation:mixed;dominant-baseline:auto;baseline-shift:baseline;text-anchor:start;white-space:normal;shape-padding:0;shape-margin:0;inline-size:0;clip-rule:nonzero;display:inline;overflow:visible;visibility:visible;isolation:auto;mix-blend-mode:normal;color-interpolation:sRGB;color-interpolation-filters:linearRGB;solid-color:#000000;solid-opacity:1;vector-effect:none;fill:#b01d47;fill-opacity:1;fill-rule:nonzero;stroke:none;stroke-width:0.421696;stroke-linecap:round;stroke-linejoin:round;stroke-miterlimit:4;stroke-dasharray:none;stroke-dashoffset:0;stroke-opacity:1;color-rendering:auto;image-rendering:auto;shape-rendering:auto;text-rendering:auto;enable-background:accumulate;stop-color:#000000"
           id="path1658" />
        <path
           d="m 12.441618,256.36113 c -1.913733,0 -3.5439419,1.25384 -4.1196451,2.97966 0.00518,0.0135 0.011184,0.0258 0.01602,0.0398 0.1241832,0.35969 0.4693203,0.58856 0.8123534,0.53537 0.2643026,-0.0416 0.5266066,0.0589 0.7090008,0.29456 0.2322049,0.29978 0.6525969,0.38543 0.9668669,0.19533 0.224679,-0.13625 0.50533,-0.13442 0.728637,0.004 0.0032,0.002 0.0065,0.004 0.0098,0.006 0.333401,0.18546 0.758171,0.0889 0.980302,-0.22117 l -0.0078,0.0119 c 0.165581,-0.20952 0.431568,-0.31232 0.695048,-0.26768 0.0097,0.002 0.01963,0.003 0.02946,0.004 0.38381,0.0213 0.731383,-0.24106 0.818555,-0.61546 l -0.0078,0.0294 c 0.09301,-0.26155 0.311397,-0.45781 0.581876,-0.52141 0.320574,-0.0754 0.555331,-0.35909 0.584461,-0.69557 l 0.178283,-0.58704 c -0.778844,-0.73611 -1.824875,-1.19218 -2.975529,-1.19218 z"
           style="color:#000000;font-style:normal;font-variant:normal;font-weight:normal;font-stretch:normal;font-size:medium;line-height:normal;font-family:sans-serif;font-variant-ligatures:normal;font-variant-position:normal;font-variant-caps:normal;font-variant-numeric:normal;font-variant-alternates:normal;font-variant-east-asian:normal;font-feature-settings:normal;font-variation-settings:normal;text-indent:0;text-align:start;text-decoration:none;text-decoration-line:none;text-decoration-style:solid;text-decoration-color:#000000;letter-spacing:normal;word-spacing:normal;text-transform:none;writing-mode:lr-tb;direction:ltr;text-orientation:mixed;dominant-baseline:auto;baseline-shift:baseline;text-anchor:start;white-space:normal;shape-padding:0;shape-margin:0;inline-size:0;clip-rule:nonzero;display:inline;overflow:visible;visibility:visible;isolation:auto;mix-blend-mode:normal;color-interpolation:sRGB;color-interpolation-filters:linearRGB;solid-color:#000000;solid-opacity:1;vector-effect:none;fill:#b01d47;fill-opacity:1;fill-rule:nonzero;stroke:none;stroke-width:0.421696;stroke-linecap:round;stroke-linejoin:round;stroke-miterlimit:4;stroke-dasharray:none;stroke-dashoffset:0;stroke-opacity:1;color-rendering:auto;image-rendering:auto;shape-rendering:auto;text-rendering:auto;enable-background:accumulate;stop-color:#000000"
           id="path1664" />
        <path
           d="m 8.8185834,259.92784 c -0.7673909,0 -1.2463252,0.86142 -0.8593792,1.51722 0.062935,0.1068 0.077152,0.17333 0.031006,0.33796 -0.1398505,0.4989 0.015486,1.0407 0.4180623,1.36891 0.057531,-0.0293 0.1187522,-0.0525 0.1834513,-0.0677 a 0.26460996,0.26460996 0 0 0 0.029455,-0.008 c 0.3549804,-0.12758 0.5829615,-0.47494 0.5663737,-0.84957 0.00956,-0.28812 0.1549085,-0.55469 0.390674,-0.72088 a 0.26460996,0.26460996 0 0 0 0.013435,-0.0114 c 0.303279,-0.24583 0.4197945,-0.6578 0.2893881,-1.02578 l 0.00568,0.016 c -0.024802,-0.0884 -0.037802,-0.14119 -0.040824,-0.16433 -0.00302,-0.0231 -0.00414,-0.0147 0.00156,-0.0372 0.00892,-0.0352 0.058673,-0.16216 0.1240235,-0.35501 z"
           style="color:#000000;font-style:normal;font-variant:normal;font-weight:normal;font-stretch:normal;font-size:medium;line-height:normal;font-family:sans-serif;font-variant-ligatures:normal;font-variant-position:normal;font-variant-caps:normal;font-variant-numeric:normal;font-variant-alternates:normal;font-variant-east-asian:normal;font-feature-settings:normal;font-variation-settings:normal;text-indent:0;text-align:start;text-decoration:none;text-decoration-line:none;text-decoration-style:solid;text-decoration-color:#000000;letter-spacing:normal;word-spacing:normal;text-transform:none;writing-mode:lr-tb;direction:ltr;text-orientation:mixed;dominant-baseline:auto;baseline-shift:baseline;text-anchor:start;white-space:normal;shape-padding:0;shape-margin:0;inline-size:0;clip-rule:nonzero;display:inline;overflow:visible;visibility:visible;isolation:auto;mix-blend-mode:normal;color-interpolation:sRGB;color-interpolation-filters:linearRGB;solid-color:#000000;solid-opacity:1;vector-effect:none;fill:#b01d47;fill-opacity:1;fill-rule:nonzero;stroke:none;stroke-width:0.421696;stroke-linecap:round;stroke-linejoin:round;stroke-miterlimit:4;stroke-dasharray:none;stroke-dashoffset:0;stroke-opacity:1;color-rendering:auto;image-rendering:auto;shape-rendering:auto;text-rendering:auto;enable-background:accumulate;stop-color:#000000"
           id="path1661" />
        <path
           id="path1592"
           d="m 12.441406,256.96867 c -2.139345,0 -3.736406,1.59873 -3.7364071,3.73836 5.156e-4,0.14541 0.1182643,0.26316 0.2636719,0.26367 h 7.0860172 c 0.146169,5.6e-4 0.265106,-0.1175 0.265624,-0.26367 -1e-6,-2.13963 -1.739562,-3.73836 -3.878906,-3.73836 z"
           style="color:#000000;font-style:normal;font-variant:normal;font-weight:normal;font-stretch:normal;font-size:medium;line-height:normal;font-family:sans-serif;font-variant-ligatures:normal;font-variant-position:normal;font-variant-caps:normal;font-variant-numeric:normal;font-variant-alternates:normal;font-variant-east-asian:normal;font-feature-settings:normal;font-variation-settings:normal;text-indent:0;text-align:start;text-decoration:none;text-decoration-line:none;text-decoration-style:solid;text-decoration-color:#000000;letter-spacing:normal;word-spacing:normal;text-transform:none;writing-mode:lr-tb;direction:ltr;text-orientation:mixed;dominant-baseline:auto;baseline-shift:baseline;text-anchor:start;white-space:normal;shape-padding:0;shape-margin:0;inline-size:0;clip-rule:nonzero;display:inline;overflow:visible;visibility:visible;isolation:auto;mix-blend-mode:normal;color-interpolation:sRGB;color-interpolation-filters:linearRGB;solid-color:#000000;solid-opacity:1;vector-effect:none;fill:#ececec;fill-opacity:1;fill-rule:nonzero;stroke:none;stroke-width:0.421696;stroke-linecap:round;stroke-linejoin:round;stroke-miterlimit:4;stroke-dasharray:none;stroke-dashoffset:0;stroke-opacity:1;color-rendering:auto;image-rendering:auto;shape-rendering:auto;text-rendering:auto;enable-background:accumulate;stop-color:#000000"
           sodipodi:nodetypes="sccccs" />
        <path
           d="m 8.8594354,259.85291 c -0.062075,0.27518 -0.097668,0.56054 -0.097668,0.85421 5.826e-4,0.14551 0.1185516,0.26325 0.2640666,0.26355 h 7.029005 c 0.14612,5.6e-4 0.265032,-0.11743 0.265616,-0.26355 0,-0.29367 -0.03559,-0.57903 -0.09767,-0.85421 -0.04743,0.0386 -0.106783,0.0596 -0.167948,0.0594 H 9.0258335 c -0.060633,-1.5e-4 -0.1193758,-0.0211 -0.1663981,-0.0594 z"
           style="color:#000000;font-style:normal;font-variant:normal;font-weight:normal;font-stretch:normal;font-size:medium;line-height:normal;font-family:sans-serif;font-variant-ligatures:normal;font-variant-position:normal;font-variant-caps:normal;font-variant-numeric:normal;font-variant-alternates:normal;font-variant-east-asian:normal;font-feature-settings:normal;font-variation-settings:normal;text-indent:0;text-align:start;text-decoration:none;text-decoration-line:none;text-decoration-style:solid;text-decoration-color:#000000;letter-spacing:normal;word-spacing:normal;text-transform:none;writing-mode:lr-tb;direction:ltr;text-orientation:mixed;dominant-baseline:auto;baseline-shift:baseline;text-anchor:start;white-space:normal;shape-padding:0;shape-margin:0;inline-size:0;clip-rule:nonzero;display:inline;overflow:visible;visibility:visible;isolation:auto;mix-blend-mode:normal;color-interpolation:sRGB;color-interpolation-filters:linearRGB;solid-color:#000000;solid-opacity:1;vector-effect:none;fill:#cccccc;fill-opacity:1;fill-rule:nonzero;stroke:none;stroke-width:0.421696;stroke-linecap:round;stroke-linejoin:round;stroke-miterlimit:4;stroke-dasharray:none;stroke-dashoffset:0;stroke-opacity:1;color-rendering:auto;image-rendering:auto;shape-rendering:auto;text-rendering:auto;enable-background:accumulate;stop-color:#000000"
           id="path1796"
           sodipodi:nodetypes="ccccccccc" />
        <path
           sodipodi:nodetypes="cssccccsccccccccccccccccccccc"
           id="path1606"
           d="m 16.104174,262.44327 c 0.09852,-0.18238 0.472068,-0.35324 0.409639,-0.56836 -0.07748,-0.267 -0.03723,-0.49983 0.09375,-0.69336 0.204381,-0.30198 -0.02791,-0.74023 -0.392578,-0.74023 l -7.3966256,9e-5 c -0.3657354,0 -0.6035994,0.42953 -0.4179688,0.74414 0.1278049,0.21688 0.1615891,0.45946 0.083984,0.73633 -0.092413,0.32968 0.022082,0.67967 0.2851562,0.86523 0.1860193,0.13121 0.2991009,0.34081 0.3066407,0.56836 l 0.00195,-0.0312 c -0.027789,0.34248 0.1786737,0.66493 0.5019531,0.78125 0.0096,0.003 0.019386,0.006 0.029297,0.008 0.2117519,0.0498 0.3822093,0.20317 0.4550784,0.4082 l -0.0078,-0.0273 c 0.07745,0.33332 0.386803,0.56562 0.728515,0.54688 0.0098,-7.9e-4 0.01962,-0.002 0.0293,-0.004 0.204636,-0.0347 0.41039,0.0441 0.539063,0.20703 l -0.0078,-0.01 c 0.198259,0.27701 0.579187,0.363 0.876953,0.19726 0.0033,-0.002 0.0066,-0.004 0.0098,-0.006 0.172898,-0.10715 0.38741,-0.11006 0.572266,0.002 0.274477,0.16614 0.649959,0.0887 0.851562,-0.17187 0.151026,-0.19522 0.351352,-0.27063 0.556641,-0.23828 0.0033,7.3e-4 0.0065,10e-4 0.0098,0.002 0.302021,0.0476 0.608688,-0.15935 0.716797,-0.47265 0.09371,-0.27161 0.259254,-0.41448 0.470703,-0.4668 0.299729,-0.0742 0.515231,-0.36879 0.523438,-0.70703 0.0072,-0.29711 -0.110056,-0.49555 0.07474,-0.62891 z"
           style="color:#000000;font-style:normal;font-variant:normal;font-weight:normal;font-stretch:normal;font-size:medium;line-height:normal;font-family:sans-serif;font-variant-ligatures:normal;font-variant-position:normal;font-variant-caps:normal;font-variant-numeric:normal;font-variant-alternates:normal;font-variant-east-asian:normal;font-feature-settings:normal;font-variation-settings:normal;text-indent:0;text-align:start;text-decoration:none;text-decoration-line:none;text-decoration-style:solid;text-decoration-color:#000000;letter-spacing:normal;word-spacing:normal;text-transform:none;writing-mode:lr-tb;direction:ltr;text-orientation:mixed;dominant-baseline:auto;baseline-shift:baseline;text-anchor:start;white-space:normal;shape-padding:0;shape-margin:0;inline-size:0;clip-rule:nonzero;display:inline;overflow:visible;visibility:visible;isolation:auto;mix-blend-mode:normal;color-interpolation:sRGB;color-interpolation-filters:linearRGB;solid-color:#000000;solid-opacity:1;vector-effect:none;fill:#dc1c4b;fill-opacity:1;fill-rule:nonzero;stroke:none;stroke-width:0.421696;stroke-linecap:round;stroke-linejoin:round;stroke-miterlimit:4;stroke-dasharray:none;stroke-dashoffset:0;stroke-opacity:1;color-rendering:auto;image-rendering:auto;shape-rendering:auto;text-rendering:auto;enable-background:accumulate;stop-color:#000000" />
      </g>
      <path
         sodipodi:nodetypes="ccccccccccccccccccccccccccccccccsccccccccssccsccscccscccsscccccsccsscccccccccccccccccccccccccccccccssccscscssccccccccccccccsccccccccccccccscccccccsscccsccccssscccccccccccccccccccccccccccccccccccccccccccccccccccccscccccccccccccccsccccccscccccccscccccccccccccccccccccccccccccccccccccccccccccccscccccsccccccssc"
         d="m 15.147349,254.90141 c -0.240875,-0.17402 -0.381801,-0.43589 -0.38964,-0.74983 0.01488,-0.37625 -0.218046,-0.72749 -0.578777,-0.8431 -0.278768,-0.0685 -0.492113,-0.25596 -0.606681,-0.58783 -0.124392,-0.36029 -0.470818,-0.58753 -0.814421,-0.5333 -0.264302,0.0416 -0.52454,-0.0595 -0.706934,-0.29507 -0.232205,-0.29979 -0.652596,-0.38544 -0.966866,-0.19534 -0.22468,0.13624 -0.505331,0.13494 -0.733547,-0.008 -0.33831,-0.1896 -0.7630803,-0.0936 -0.982369,0.21162 -0.1627389,0.20461 -0.4271765,0.30742 -0.7051257,0.26071 -0.3982795,-0.0234 -0.7458496,0.23695 -0.8291481,0.59661 -0.08914,0.24682 -0.3075218,0.44309 -0.5780006,0.50669 -0.3367365,0.0792 -0.5830205,0.40473 -0.5958292,0.79116 -0.00497,0.14622 0.109584,0.26863 0.2557984,0.27337 0.1462058,0.005 0.2686296,-0.10959 0.2733683,-0.2558 0.00677,-0.20428 0.081041,-0.26794 0.1875853,-0.293 0.4447696,-0.10459 0.806042,-0.42896 0.9640239,-0.87307 0.034598,-0.14121 0.147637,-0.22611 0.2635499,-0.22067 0.4383326,0.075 0.8976622,-0.1022 1.1864912,-0.46794 0.071928,-0.10017 0.1947799,-0.12811 0.2968816,-0.0713 0.389809,0.23597 0.881532,0.23649 1.271757,0 0.08747,-0.052 0.188292,-0.0417 0.273368,0.0682 0.29263,0.37798 0.753358,0.56382 1.207162,0.49248 h 0.0016 c 0.09362,-0.0148 0.170918,0.013 0.230477,0.18551 0.162824,0.47165 0.519766,0.80741 0.95653,0.92088 0.125458,0.042 0.206695,0.14947 0.199988,0.33176 0.01142,0.47925 0.230776,0.90287 0.591179,1.16892 0.208097,0.26648 0.09654,0.49779 0.05323,0.76171 0.203288,0.39264 0.331537,0.63149 -4e-6,1.06661 -0.0033,0.0838 0.02318,0.16101 0.04496,0.24184 l -0.08061,0.27544 c -0.660316,-0.52101 -1.491231,-0.83458 -2.39572,-0.83458 -1.115331,0 -2.11957,0.47572 -2.8277341,1.23197 -0.054858,-0.0709 -0.1132993,-0.14857 -0.1705324,-0.23771 -0.1388927,-0.21633 -0.2440842,-0.48262 -0.2459797,-0.54881 0.020471,-0.37524 -0.2063903,-0.72412 -0.5743837,-0.86067 -0.283686,-0.0717 -0.501246,-0.26978 -0.5878192,-0.5178 -0.079239,-0.36061 -0.4245933,-0.62484 -0.8232056,-0.60745 -0.278815,0.0425 -0.5422878,-0.0631 -0.7020282,-0.26847 -0.1271048,-0.18194 -0.332718,-0.29104 -0.548549,-0.31084 0.1208106,-0.70671 0.5033984,-1.43196 0.8919353,-1.96835 0.082826,-0.11434 0.124161,-0.25612 0.1116211,-0.38654 -0.012541,-0.13042 -0.071621,-0.23922 -0.1405599,-0.32401 -0.1378778,-0.16957 -0.3184374,-0.26809 -0.5002279,-0.31678 -0.209905,-0.0563 -0.423855,-0.0476 -0.5937623,0.045 -0.1014711,0.0553 -0.1778502,0.13088 -0.2475301,0.21342 -0.6431746,-0.68402 -1.0393304,-0.85914 -1.7554467,-1.03146 -0.2762483,-0.0691 -0.5874665,-0.0992 -0.9007185,-0.0997 -0.3132519,-5.3e-4 -0.6282159,0.0281 -0.9105388,0.076 -0.2826274,0.0479 -0.529442,0.11174 -0.7229532,0.21136 -0.096756,0.0498 -0.1848634,0.10571 -0.25579837,0.21084 -0.070935,0.10512 -0.0877301,0.29259 -0.0196371,0.41392 0.11167007,0.19899 0.22635157,0.37292 0.34209797,0.53537 -0.048838,0.0192 -0.1015812,0.0364 -0.1483113,0.0563 -0.26358957,0.11267 -0.48781821,0.23306 -0.65267339,0.37517 -0.0824276,0.071 -0.15663292,0.14682 -0.20102133,0.26562 -0.0443884,0.1188 -0.0144768,0.30412 0.0800985,0.40617 0.88864192,0.95888 1.71642672,1.28894 2.47271732,1.30277 0.5946678,0.0109 1.1272293,-0.1541 1.6272911,-0.29921 -0.014372,0.0987 -0.027247,0.19756 -0.034623,0.29662 -0.2169766,0.006 -0.4323975,0.10621 -0.5772256,0.28939 -0.183573,0.23226 -0.4455597,0.32992 -0.7090008,0.28526 -0.3432335,-0.0583 -0.6924288,0.16652 -0.8201051,0.52554 -0.1172467,0.3297 -0.3310695,0.51418 -0.6015137,0.57775 -0.3367932,0.0792 -0.5830121,0.40267 -0.5958292,0.7891 -0.012249,0.3687 -0.15486353,0.62287 -0.39067385,0.7891 -0.29691534,0.2093 -0.42596756,0.60235 -0.32039388,0.97875 0.0283276,0.101 0.0428963,0.16233 0.0480588,0.19637 -0.005496,0.0333 -0.0754748,0.17732 -0.17518344,0.49506 -0.0161345,0.0515 -0.0161345,0.10663 0,0.15813 0.0989379,0.31528 0.16482231,0.46456 0.17699187,0.52813 -0.002249,0.0417 -0.0131794,0.0945 -0.0351399,0.17519 -0.12756544,0.36022 -0.0115655,0.77167 0.29868969,1.02319 0.24274175,0.17187 0.38602621,0.43845 0.39558301,0.72657 -0.016487,0.37463 0.2134604,0.72198 0.5831685,0.8537 0.2849823,0.0677 0.5034545,0.26431 0.5966045,0.52554 0.098469,0.35803 0.4354237,0.60658 0.824239,0.58395 0.2789354,-0.0467 0.5434126,0.0561 0.7051247,0.25967 0.21825,0.30423 0.6430356,0.40018 0.9823683,0.21188 0.2292725,-0.14116 0.5093676,-0.14297 0.7340634,-0.007 0.31427,0.1901 0.7346569,0.10443 0.9668661,-0.19637 0.1824082,-0.23663 0.4432387,-0.33565 0.7074503,-0.29404 0.3435559,0.0541 0.6900305,-0.17457 0.8144206,-0.53485 0.030567,-0.0885 0.068767,-0.16653 0.1131713,-0.23461 0.078998,-0.12248 0.04416,-0.2859 -0.078031,-0.36535 -0.1219747,-0.0794 -0.2852727,-0.045 -0.3653522,0.0765 -0.069265,0.10618 -0.1260825,0.22414 -0.1700155,0.3514 -0.059563,0.17252 -0.138852,0.1982 -0.2325438,0.18345 -0.4538946,-0.0715 -0.9140349,0.1166 -1.2066448,0.49454 -0.085641,0.11055 -0.1875491,0.11931 -0.2754355,0.0661 -0.393937,-0.23859 -0.8900536,-0.23491 -1.275633,0.004 -0.096169,0.0529 -0.2190064,0.0265 -0.290939,-0.0734 -0.2888202,-0.3653 -0.7501787,-0.54263 -1.1885583,-0.46793 -0.1159807,0.005 -0.2289324,-0.0796 -0.2625168,-0.22169 -0.1569463,-0.44491 -0.5182253,-0.76719 -0.9492963,-0.8679 -0.1286013,-0.0472 -0.2170901,-0.18538 -0.2041218,-0.35063 -0.014127,-0.46376 -0.2374482,-0.88163 -0.6022888,-1.1436 -0.12734433,-0.10621 -0.17492033,-0.27889 -0.11653034,-0.44338 0.0288602,-0.10055 0.04752,-0.17073 0.0576192,-0.24805 0.0100991,-0.0773 0.004713,-0.16453 -0.0134358,-0.23616 -0.0308861,-0.12189 -0.0871084,-0.25178 -0.15657959,-0.45734 0.0677481,-0.19627 0.12217609,-0.31016 0.15451254,-0.43149 0.0190876,-0.0716 0.0221694,-0.16272 0.009818,-0.23823 -0.0123515,-0.0755 -0.0319987,-0.14451 -0.0604614,-0.24598 -0.0545163,-0.19437 -7.06e-6,-0.31925 0.11523839,-0.40049 0.3709435,-0.26149 0.5980581,-0.69664 0.6149496,-1.2051 0.00678,-0.2043 0.081097,-0.26797 0.1875854,-0.293 0.4448047,-0.10455 0.8093414,-0.43924 0.978235,-0.91416 0.060787,-0.17094 0.1391868,-0.19725 0.232544,-0.18138 0.4530989,0.0768 0.9170887,-0.10433 1.212846,-0.47853 0.085854,-0.10859 0.1876311,-0.11908 0.2754352,-0.0646 0.3883541,0.24049 0.8793922,0.24598 1.2717572,0.0134 0.1026837,-0.0541 0.224383,-0.0247 0.2948143,0.076 0.2801774,0.36206 0.7270356,0.54274 1.1727971,0.48162 0.1292673,-0.004 0.2405484,0.082 0.2725931,0.22324 0.1529273,0.44621 0.5112195,0.77402 0.9402527,0.87979 0.1277991,0.049 0.2155042,0.18646 0.2012797,0.35244 0.00663,0.32004 0.1674746,0.5875 0.3289204,0.83896 0.084385,0.13672 0.1842966,0.25781 0.2728516,0.37156 -0.4096197,0.58173 -0.661248,1.28011 -0.6986651,2.03502 -0.2120675,0.13574 -0.3106542,0.43606 -0.1715659,0.67179 0.1278049,0.21688 0.161321,0.45952 0.083716,0.73639 -0.092413,0.32968 0.02218,0.6795 0.2852539,0.86506 0.1860193,0.13121 0.2989014,0.34089 0.3074747,0.55268 -0.026755,0.32672 0.1800492,0.64927 0.5177977,0.76972 0.2262217,0.0539 0.39687,0.20735 0.4658631,0.39869 0.07357,0.31962 0.38305,0.55178 0.739232,0.53097 0.219105,-0.0368 0.424781,0.0422 0.549579,0.20025 0.194383,0.2721 0.575307,0.35771 0.877982,0.18913 0.177808,-0.10999 0.392628,-0.11283 0.577484,-7.6e-4 0.274477,0.16614 0.650025,0.0885 0.851628,-0.17209 0.151026,-0.19522 0.351266,-0.27058 0.561464,-0.23719 0.306931,0.0486 0.613553,-0.15851 0.721662,-0.47181 0.09371,-0.27161 0.259323,-0.41432 0.470772,-0.46664 0.299729,-0.0742 0.515275,-0.36869 0.523482,-0.70693 0.0072,-0.29711 0.117516,-0.49554 0.307231,-0.80379 0.189715,-0.30825 0.335008,-0.47919 0.272579,-0.69431 -0.07748,-0.267 -0.03693,-0.49997 0.09405,-0.6935 0.186167,-0.27507 0.0082,-0.65957 -0.30024,-0.72657 -0.05969,-0.92267 -0.441663,-1.75689 -1.036112,-2.39313 l 0.170015,-0.58343 c 0.02199,-0.11083 -0.01217,-0.20259 -0.03927,-0.31213 0.123193,-0.30473 0.162256,-0.77591 0.01266,-1.07926 0.121299,-0.40032 0.03519,-0.9268 -0.267426,-1.1857 z m -9.9735405,-2.48769 c -0.051437,0.0839 -0.09921,0.17054 -0.1467612,0.25786 -0.4171175,-0.29082 -0.7290769,-0.47561 -1.0288778,-0.58342 -0.3575926,-0.1286 -0.6870825,-0.14451 -1.0758062,-0.14642 -0.3887237,-0.002 -0.7676213,0.0666 -1.1318079,0.1676 -0.114544,-0.15272 -0.2290443,-0.32411 -0.3431315,-0.51728 0.1071852,-0.0533 0.3118924,-0.1151 0.5565552,-0.15658 0.2498843,-0.0423 0.5410168,-0.0655 0.8237151,-0.0646 0.2826987,0.001 0.5570422,0.0264 0.7728197,0.0813 0.7247078,0.17513 0.9285386,0.24503 1.5732946,0.96146 z m 1.2451329,-0.0202 c -0.4565926,0.67123 -0.9175965,1.54169 -1.0058819,2.45618 -0.1566079,0.0606 -0.328786,0.062 -0.486275,0.005 0.032886,-0.83037 0.3731744,-1.71118 0.8562784,-2.40967 0.092483,-0.13371 0.1599502,-0.20187 0.2010215,-0.22427 0.020534,-0.0112 0.098269,-0.0217 0.1628838,-0.0236 0.064615,-0.002 0.1978874,0.0584 0.2719732,0.19616 z m -2.6006201,0.19276 c 0.2433601,0.0875 0.5372013,0.25952 0.9720337,0.56534 -0.091387,0.2135 -0.1674892,0.43352 -0.2299602,0.65732 -0.6056842,0.16043 -1.170576,0.36388 -1.7399456,0.35347 -0.5909927,-0.0108 -1.2246153,-0.26117 -1.99626054,-1.05472 0.0935018,-0.0767 0.26996304,-0.18379 0.49402664,-0.27957 0.4661042,-0.19923 1.1131028,-0.36027 1.5464082,-0.35784 0.4333055,0.002 0.6773284,0.0166 0.9536978,0.116 z m 7.1540887,0.7183 c -0.310052,0.18506 -0.535723,0.20002 -0.833541,0.008 -0.123019,-0.0787 -0.2865464,-0.0429 -0.3653523,0.0801 -0.079098,0.12248 -0.044202,0.28587 0.078031,0.36536 0.4452683,0.28698 0.9627273,0.25664 1.3926793,0 0.124791,-0.0749 0.165659,-0.23653 0.09147,-0.36174 -0.04542,-0.0761 -0.125932,-0.12441 -0.225567,-0.12893 -0.05578,0.001 -0.09933,0.0141 -0.137718,0.037 z m 1.668115,0.2775 c -0.125914,0.0748 -0.167142,0.2376 -0.09198,0.36329 0.184005,0.31072 0.199298,0.53476 0.0062,0.83199 -0.08051,0.12289 -0.04548,0.28785 0.07803,0.36742 0.122482,0.0791 0.285871,0.0442 0.365353,-0.078 0.288737,-0.44437 0.260793,-0.95976 0.0057,-1.39062 -0.0445,-0.0766 -0.124433,-0.12593 -0.224017,-0.13125 -0.05631,0.001 -0.100429,0.014 -0.139268,0.0372 z m -3.4530191,2.09186 c -0.045427,0.13915 0.030758,0.28874 0.1700157,0.33383 0.1389973,0.0455 0.288521,-0.0304 0.3338296,-0.1695 0.11195,-0.34336 0.2704475,-0.50394 0.6211508,-0.555 0.144481,-0.0205 0.245056,-0.15417 0.224792,-0.29869 -0.01928,-0.13485 -0.137802,-0.23302 -0.287321,-0.22583 -0.5378113,0.0773 -0.9072411,0.43909 -1.0624671,0.91519 z m 2.9021481,-0.0408 c -0.310052,0.18507 -0.534173,0.19951 -0.83199,0.008 -0.123019,-0.0787 -0.286546,-0.0429 -0.365352,0.0801 -0.079,0.12262 -0.04387,0.28604 0.07855,0.36535 0.445268,0.28697 0.960661,0.25663 1.390613,0 0.12448,-0.0749 0.165309,-0.23612 0.09147,-0.36122 -0.05009,-0.0853 -0.143583,-0.13553 -0.249081,-0.1297 -0.04482,0.005 -0.0815,0.0177 -0.114205,0.0377 z m -5.7732905,0.93122 c -0.054864,0.35696 -0.1856733,0.54133 -0.5234824,0.64854 -0.1392804,0.0442 -0.2163268,0.193 -0.1720824,0.33228 0.044451,0.13907 0.1931541,0.21585 0.3322794,0.17157 0.5050809,-0.1603 0.8106942,-0.57527 0.8867675,-1.07022 0.0229,-0.14461 -0.07599,-0.28032 -0.2421041,-0.3036 -0.1507466,-1.7e-4 -0.2606707,0.0938 -0.281378,0.22143 z m -2.1874634,0.6077 c -0.1313355,0.33642 -0.2991109,0.4863 -0.6521567,0.51728 -0.1457721,0.0129 -0.2534356,0.14158 -0.2402953,0.28733 0.012848,0.14555 0.1412512,0.25313 0.2868041,0.24029 0.527872,-0.0463 0.9175681,-0.38721 1.0996745,-0.85369 0.052395,-0.13585 -0.014806,-0.28849 -0.2033469,-0.35063 -0.1587727,-0.006 -0.2522807,0.0608 -0.2906797,0.15942 z m 8.3126709,0.18345 c 1.759185,0 3.154911,1.36376 3.29644,3.08612 H 9.1425477 c 0.1415288,-1.72236 1.5398383,-3.08612 3.2990233,-3.08612 z m -10.4882488,1.98438 c -0.010674,0.1455 0.09844,0.27218 0.2439127,0.28319 0.3600095,0.0266 0.5538651,0.1444 0.6872967,0.47283 0.055331,0.13475 0.2091724,0.19943 0.344165,0.1447 0.1353547,-0.0547 0.2008015,-0.20874 0.1462442,-0.34417 -0.1994588,-0.49096 -0.6390205,-0.76361 -1.1601359,-0.80046 -0.150503,0.0118 -0.2519151,0.11493 -0.2614827,0.24391 z m 4.019393,-0.13074 c -0.3100514,0.18507 -0.5341736,0.19951 -0.8319905,0.008 -0.1230188,-0.0787 -0.2865461,-0.0429 -0.3653525,0.0801 -0.079099,0.12248 -0.044202,0.28587 0.078031,0.36535 0.4452686,0.28698 0.9606614,0.25663 1.3906127,0 0.1246669,-0.0747 0.1657363,-0.23598 0.091984,-0.36122 -0.045122,-0.0757 -0.1249421,-0.1239 -0.2240175,-0.12893 -0.056307,9.8e-4 -0.1004294,0.0138 -0.1392679,0.0369 z m 3.1016194,3.14451 c -0.081518,-0.0575 -0.1215207,-0.14109 -0.080098,-0.28887 0.1071769,-0.38236 0.045743,-0.76552 -0.1312582,-1.09399 h 7.2930946 c -0.180325,0.31098 -0.258244,0.67887 -0.150378,1.05058 0.04267,0.14702 0.0016,0.23412 -0.198345,0.48614 -0.199926,0.25202 -0.394796,0.50589 -0.403169,0.85176 -0.0038,0.15631 -0.05234,0.18973 -0.12299,0.20723 -0.385021,0.0953 -0.700823,0.39412 -0.843876,0.80873 -0.04515,0.13085 -0.08078,0.12913 -0.137718,0.12092 -0.399951,-0.0623 -0.803204,0.10218 -1.061175,0.43564 -0.06242,0.0807 -0.09929,0.0788 -0.158647,0.0429 -0.348864,-0.2114 -0.783886,-0.21139 -1.120087,-0.003 -0.06142,0.0338 -0.137938,0.0158 -0.186293,-0.0509 -0.252101,-0.31885 -0.652582,-0.47228 -1.032237,-0.40747 -0.07383,0.003 -0.148628,-0.0541 -0.173633,-0.15426 -0.137768,-0.38751 -0.450715,-0.66905 -0.82243,-0.75576 -0.086332,-0.0319 -0.1481934,-0.12884 -0.1395262,-0.25038 -0.013015,-0.40756 -0.2100657,-0.77262 -0.5312339,-0.99916 z m -5.005896,-1.2268 c -0.00847,2.9e-4 -0.01692,9.8e-4 -0.025321,0.002 -0.5243801,0.0763 -0.8938053,0.43807 -1.0490316,0.91416 -0.045605,0.13855 0.029519,0.28787 0.1679485,0.33383 0.1389975,0.0455 0.2885212,-0.0304 0.3338298,-0.1695 0.1119495,-0.34335 0.2725185,-0.50394 0.6232176,-0.555 0.1436431,-0.0216 0.2430563,-0.15487 0.2227255,-0.29869 -0.019505,-0.13444 -0.1376516,-0.23226 -0.2733683,-0.22635 z m 1.6123047,0.16382 c -0.045243,10e-4 -0.089369,0.0144 -0.1281576,0.0377 -0.1244812,0.0749 -0.1653098,0.23612 -0.091467,0.36122 0.1840074,0.31074 0.1988206,0.53681 0.00568,0.83405 -0.079099,0.12249 -0.044203,0.28588 0.078031,0.36536 0.1220795,0.0794 0.2853682,0.0452 0.3653525,-0.0765 0.2887385,-0.44436 0.2608313,-0.96181 0.00568,-1.39268 -0.045122,-0.0757 -0.1249421,-0.12391 -0.2129068,-0.12868 -0.0074,-4.7e-4 -0.014811,-6.6e-4 -0.02222,-5.3e-4 z m 6.4657557,1.01595 c -0.04577,0.13931 0.03049,0.28927 0.170015,0.33435 0.139148,0.0454 0.28874,-0.0308 0.33383,-0.17002 0.111949,-0.34336 0.270448,-0.50395 0.62115,-0.555 0.144481,-0.0205 0.245056,-0.15417 0.224793,-0.29869 -0.01879,-0.13045 -0.130722,-0.22718 -0.281895,-0.22557 -0.543755,0.0776 -0.912669,0.43883 -1.067893,0.91493 z m -1.588017,-0.71468 c -0.125225,0.0742 -0.167018,0.23558 -0.09353,0.36122 0.184007,0.31074 0.198781,0.53681 0.0057,0.83405 -0.0791,0.12249 -0.0442,0.28588 0.07803,0.36536 0.122896,0.0805 0.287854,0.0455 0.367419,-0.078 0.288739,-0.44437 0.260791,-0.95975 0.0057,-1.39062 -0.04601,-0.0786 -0.129157,-0.12793 -0.239004,-0.12996 -0.05625,0.006 -0.09219,0.0182 -0.124282,0.038 z m 2.921785,0.82992 c -0.01066,0.14569 0.09875,0.27245 0.24443,0.28319 0.360011,0.0266 0.553865,0.14441 0.687296,0.47284 0.05533,0.13446 0.2088,0.19908 0.343649,0.14469 0.135557,-0.0545 0.201261,-0.2086 0.146761,-0.34416 -0.199459,-0.49097 -0.639537,-0.76362 -1.160395,-0.80047 -0.150446,0.0115 -0.252137,0.11475 -0.261741,0.24391 z m -0.834057,0.98082 c -0.310052,0.18507 -0.534174,0.20153 -0.831991,0.01 -0.122793,-0.0802 -0.287357,-0.0452 -0.366903,0.078 -0.07871,0.12302 -0.04286,0.28655 0.0801,0.36535 0.445268,0.28698 0.960661,0.25866 1.390613,0.002 0.125728,-0.075 0.166714,-0.23774 0.09147,-0.36329 -0.045,-0.0759 -0.124841,-0.1243 -0.224017,-0.12945 -0.05635,0.001 -0.100479,0.0141 -0.139268,0.0375 z"
         style="color:#000000;font-style:normal;font-variant:normal;font-weight:normal;font-stretch:normal;font-size:medium;line-height:normal;font-family:sans-serif;font-variant-ligatures:normal;font-variant-position:normal;font-variant-caps:normal;font-variant-numeric:normal;font-variant-alternates:normal;font-variant-east-asian:normal;font-feature-settings:normal;font-variation-settings:normal;text-indent:0;text-align:start;text-decoration:none;text-decoration-line:none;text-decoration-style:solid;text-decoration-color:#000000;letter-spacing:normal;word-spacing:normal;text-transform:none;writing-mode:lr-tb;direction:ltr;text-orientation:mixed;dominant-baseline:auto;baseline-shift:baseline;text-anchor:start;white-space:normal;shape-padding:0;shape-margin:0;inline-size:0;clip-rule:nonzero;display:inline;overflow:visible;visibility:visible;isolation:auto;mix-blend-mode:normal;color-interpolation:sRGB;color-interpolation-filters:linearRGB;solid-color:#000000;solid-opacity:1;vector-effect:none;fill:#000000;fill-opacity:1;fill-rule:nonzero;stroke:none;stroke-width:0.421696;stroke-linecap:round;stroke-linejoin:round;stroke-miterlimit:4;stroke-dasharray:none;stroke-dashoffset:0;stroke-opacity:1;color-rendering:auto;image-rendering:auto;shape-rendering:auto;text-rendering:auto;enable-background:accumulate;stop-color:#000000"
         id="path1345-5" />
    </g>
  </g>
</svg>
